name E:\Dropbox\SEL\BOX\Experiment\240124_SUB1_PJH\c3d\XYZ\UpDown_TrcMot\15_10_trial1_D1_ExtLoadAPP2.mot
datacolumns 37
datarows 5
range 8.25 8.254
endheader

time	    ground_force1_vx	    ground_force1_vy	    ground_force1_vz	    ground_force1_px	    ground_force1_py	    ground_force1_pz	    ground_torque1_x	    ground_torque1_y	    ground_torque1_z	    ground_force2_vx	    ground_force2_vy	    ground_force2_vz	    ground_force2_px	    ground_force2_py	    ground_force2_pz	    ground_torque2_x	    ground_torque2_y	    ground_torque2_z	      hand_force3_vx	      hand_force3_vy	      hand_force3_vz	      hand_force3_px	      hand_force3_py	      hand_force3_pz	      hand_torque3_x	      hand_torque3_y	      hand_torque3_z	      hand_force4_vx	      hand_force4_vy	      hand_force4_vz	      hand_force4_px	      hand_force4_py	      hand_force4_pz	      hand_torque4_x	      hand_torque4_y	      hand_torque4_z	
8.25	         32.79450033	        360.13919348	         19.68553522	          0.22182855	          0.00000000	          0.17208653	          0.00000000	          0.08546136	          0.00000000	        -36.60745234	        403.98737179	         15.33140923	          0.57862422	          0.00000000	          0.18096808	          0.00000000	          0.20945014	          0.00000000	          0.00000000	          0.00000000	          0.00000000	          0.00000000	          0.00000000	          0.00000000	          0.00000000	          0.00000000	          0.00000000	          0.00000000	          0.00000000	          0.00000000	          0.00000000	          0.00000000	          0.00000000	          0.00000000	          0.00000000	          0.00000000	
8.251	         32.77854683	        360.45580150	         19.67435626	          0.22184571	          0.00000000	          0.17206762	          0.00000000	          0.08994872	          0.00000000	        -36.63114152	        404.60313723	         15.41624771	          0.57860832	          0.00000000	          0.18091722	          0.00000000	          0.20405011	          0.00000000	          0.00000000	          0.00000000	          0.00000000	          0.00000000	          0.00000000	          0.00000000	          0.00000000	          0.00000000	          0.00000000	          0.00000000	          0.00000000	          0.00000000	          0.00000000	          0.00000000	          0.00000000	          0.00000000	          0.00000000	          0.00000000	
8.252	         32.76409702	        360.77614123	         19.66188013	          0.22186257	          0.00000000	          0.17204868	          0.00000000	          0.09461477	          0.00000000	        -36.65568356	        405.22876531	         15.50016108	          0.57859247	          0.00000000	          0.18086724	          0.00000000	          0.19863248	          0.00000000	          0.00000000	          0.00000000	          0.00000000	          0.00000000	          0.00000000	          0.00000000	          0.00000000	          0.00000000	          0.00000000	          0.00000000	          0.00000000	          0.00000000	          0.00000000	          0.00000000	          0.00000000	          0.00000000	          0.00000000	          0.00000000	
8.253	         32.75115996	        361.10015606	         19.64812085	          0.22187915	          0.00000000	          0.17202969	          0.00000000	          0.09946268	          0.00000000	        -36.68098684	        405.86407080	         15.58308314	          0.57857663	          0.00000000	          0.18081810	          0.00000000	          0.19320631	          0.00000000	          0.00000000	          0.00000000	          0.00000000	          0.00000000	          0.00000000	          0.00000000	          0.00000000	          0.00000000	          0.00000000	          0.00000000	          0.00000000	          0.00000000	          0.00000000	          0.00000000	          0.00000000	          0.00000000	          0.00000000	          0.00000000	
8.254	         32.73974129	        361.42778486	         19.63309124	          0.22189544	          0.00000000	          0.17201062	          0.00000000	          0.10449522	          0.00000000	        -36.70695805	        406.50885429	         15.66494885	          0.57856080	          0.00000000	          0.18076978	          0.00000000	          0.18778063	          0.00000000	          0.00000000	          0.00000000	          0.00000000	          0.00000000	          0.00000000	          0.00000000	          0.00000000	          0.00000000	          0.00000000	          0.00000000	          0.00000000	          0.00000000	          0.00000000	          0.00000000	          0.00000000	          0.00000000	          0.00000000	          0.00000000	
